<?xml version="1.0" encoding="UTF-8" standalone="no"?>
<!DOCTYPE svg PUBLIC "-//W3C//DTD SVG 1.1//EN"
 "http://www.w3.org/Graphics/SVG/1.1/DTD/svg11.dtd">
<!-- Generated by graphviz version 2.40.1 (20161225.0304)
 -->
<!-- Title: %3 Pages: 1 -->
<svg width="680pt" height="56pt"
 viewBox="0.00 0.00 680.07 56.00" xmlns="http://www.w3.org/2000/svg" xmlns:xlink="http://www.w3.org/1999/xlink">
<g id="graph0" class="graph" transform="scale(1 1) rotate(0) translate(4 52)">
<title>%3</title>
<polygon fill="#ffffff" stroke="transparent" points="-4,4 -4,-52 676.0738,-52 676.0738,4 -4,4"/>
<!-- start -->
<g id="node1" class="node">
<title>start</title>
</g>
<!-- converter -->
<g id="node3" class="node">
<title>converter</title>
<ellipse fill="none" stroke="#000000" cx="194.643" cy="-18" rx="78.7863" ry="18"/>
<text text-anchor="middle" x="194.643" y="-14.3" font-family="Times,serif" font-size="14.00" fill="#000000">converter.convert()</text>
</g>
<!-- start&#45;&gt;converter -->
<g id="edge1" class="edge">
<title>start&#45;&gt;converter</title>
<path fill="none" stroke="#000000" d="M1.0569,-18C6.8916,-18 57.5704,-18 105.6068,-18"/>
<polygon fill="#000000" stroke="#000000" points="105.8001,-21.5001 115.8001,-18 105.8001,-14.5001 105.8001,-21.5001"/>
<text text-anchor="middle" x="58.5" y="-36.8" font-family="Times,serif" font-size="14.00" fill="#000000">input text</text>
<text text-anchor="middle" x="58.5" y="-21.8" font-family="Times,serif" font-size="14.00" fill="#000000">w.r.t. file type</text>
</g>
<!-- renderer -->
<g id="node2" class="node">
<title>renderer</title>
</g>
<!-- engine -->
<g id="node4" class="node">
<title>engine</title>
<ellipse fill="none" stroke="#000000" cx="483.1799" cy="-18" rx="68.7879" ry="18"/>
<text text-anchor="middle" x="483.1799" y="-14.3" font-family="Times,serif" font-size="14.00" fill="#000000">engine.convert()</text>
</g>
<!-- converter&#45;&gt;engine -->
<g id="edge2" class="edge">
<title>converter&#45;&gt;engine</title>
<path fill="none" stroke="#000000" d="M273.487,-18C314.0957,-18 363.4784,-18 404.1184,-18"/>
<polygon fill="#000000" stroke="#000000" points="404.2516,-21.5001 414.2515,-18 404.2515,-14.5001 404.2516,-21.5001"/>
<text text-anchor="middle" x="343.786" y="-36.8" font-family="Times,serif" font-size="14.00" fill="#000000">new text</text>
<text text-anchor="middle" x="343.786" y="-21.8" font-family="Times,serif" font-size="14.00" fill="#000000"> &#160;w.r.t. engine spec</text>
</g>
<!-- engine&#45;&gt;renderer -->
<g id="edge3" class="edge">
<title>engine&#45;&gt;renderer</title>
<path fill="none" stroke="#000000" d="M552.2611,-18C592.6261,-18 639.629,-18 660.5536,-18"/>
<polygon fill="#000000" stroke="#000000" points="660.8246,-21.5001 670.8246,-18 660.8246,-14.5001 660.8246,-21.5001"/>
<text text-anchor="middle" x="611.5738" y="-21.8" font-family="Times,serif" font-size="14.00" fill="#000000">binary file data</text>
</g>
</g>
</svg>
